<svg width="235" height="278" viewBox="0 0 235 278" fill="none" xmlns="http://www.w3.org/2000/svg">
<g clip-path="url(#clip0_1_2)">
<path d="M119.639 273.396L119.618 273.387L119.597 273.379C109.781 269.856 96.6469 268.246 82.7495 266.689C81.828 266.586 80.9031 266.483 79.9755 266.38C66.884 264.922 53.2444 263.404 41.0361 260.322C27.9585 257.02 16.6082 251.944 9.35627 243.308C2.1247 234.695 -1.1005 222.457 2.24967 204.665C4.06816 195.007 10.8868 187.437 20.6395 181.051C30.3925 174.664 43.0076 169.507 56.2916 164.649C60.4074 163.144 64.5886 161.668 68.7662 160.192C78.0494 156.914 87.3146 153.642 95.8043 150.079C108.112 144.913 118.88 139.102 125.794 131.691C142.25 114.05 142.557 92.389 142.806 72.9533L142.808 72.8289C142.933 63.129 143.05 54.0113 145.102 46.1371C147.155 38.2583 151.138 31.6535 159.013 27.0031C188.321 9.69607 209.641 -1.49427 243.386 1.29719C261.06 2.75925 276.315 11.3273 289.504 23.3593C302.695 35.3936 313.795 50.8712 323.15 66.0999C341.303 95.6488 348.808 129.893 343.33 164.148C337.518 200.498 324.103 238.434 292.663 257.121C285.011 261.669 272.122 265.783 256.605 269.186C241.103 272.585 223.028 275.264 205.039 276.965C187.05 278.665 169.157 279.386 154.02 278.871C138.858 278.355 126.538 276.6 119.639 273.396Z" fill="white" fill-opacity="0.1" stroke="black"/>
<path fill-rule="evenodd" clip-rule="evenodd" d="M125.428 131.35C98.081 160.665 9.1766 165.174 1.75831 204.572C-11.721 276.16 80.4289 259.85 119.428 273.85C147.429 286.85 262.018 275.917 292.918 257.551C324.562 238.743 338.007 200.606 343.824 164.227C349.322 129.847 341.788 95.4827 323.576 65.8382C304.845 35.3473 279.062 3.74679 243.427 0.798892C209.516 -2.00635 188.078 9.25892 158.759 26.5726C126.712 45.4967 158.043 96.3874 125.428 131.35Z"/>
</g>
<defs>
<clipPath id="clip0_1_2">
<rect width="235" height="278" fill="white"/>
</clipPath>
</defs>
</svg>
