<svg width="300" height="225" viewBox="0 0 300 225" fill="none" xmlns="http://www.w3.org/2000/svg">
<path d="M299.5 0H221H131.5H62H0V51V111V139.5C0 139.5 3.5 142.5 16.5 143C29.5 143.5 24 148 31 152.5C38 157 54 152.5 64.5 157C75 161.5 77 163 84.5 166.5C92 170 100 165 110 166.5C120 168 134.5 178.5 142 174C149.5 169.5 162.5 182 170.5 184C178.5 186 198.5 193.5 211 191.5C223.5 189.5 224.5 209 238 207C251.5 205 256.5 216 262 220C267.5 224 287.5 223.5 287.5 223.5H299.5V170.5V120.5V65.5V0Z" fill="black" stroke="black"/>
</svg>
