<svg width="235" height="278" viewBox="0 0 235 278" fill="none" xmlns="http://www.w3.org/2000/svg">
<g clip-path="url(#clip0_1_2)">
<path fill-rule="evenodd" clip-rule="evenodd" d="M125.428 131.35C98.081 160.665 9.1766 165.174 1.75831 204.572C-11.721 276.16 80.4289 259.85 119.428 273.85C147.429 286.85 262.018 275.917 292.918 257.551C324.562 238.743 338.007 200.606 343.824 164.227C349.322 129.847 341.788 95.4827 323.576 65.8382C304.845 35.3473 279.062 3.74679 243.427 0.798892C209.516 -2.00635 188.078 9.25892 158.759 26.5726C126.712 45.4967 158.043 96.3874 125.428 131.35Z" fill="white" fill-opacity="0.1"/>
<path fill-rule="evenodd" clip-rule="evenodd" d="M190.5 93.5C163.153 122.815 123.5 180 169 194C198 199 165.501 224 204.5 238C232.501 251 262.018 275.917 292.918 257.551C324.562 238.743 338.007 200.606 343.824 164.227C349.322 129.847 341.788 95.4827 323.576 65.8382C304.845 35.3473 279.062 3.74677 243.427 0.798876C209.516 -2.00637 171.936 -9.5 158.759 26.5726C146 61.5 223.115 58.5374 190.5 93.5Z"/>
</g>
<defs>
<clipPath id="clip0_1_2">
<rect width="235" height="278" fill="white"/>
</clipPath>
</defs>
</svg>
